<?xml version="1.0" standalone="no"?>
<!DOCTYPE svg PUBLIC "-//W3C//DTD SVG 20010904//EN"
 "http://www.w3.org/TR/2001/REC-SVG-20010904/DTD/svg10.dtd">
<svg version="1.0" xmlns="http://www.w3.org/2000/svg"
 width="433.000000pt" height="417.000000pt" viewBox="0 0 433.000000 417.000000"
 preserveAspectRatio="xMidYMid meet">

<g transform="translate(0.000000,417.000000) scale(0.100000,-0.100000)"
fill="#000000" stroke="none">
<path d="M2006 3924 c-9 -8 -16 -22 -16 -29 0 -17 27 -45 44 -45 19 0 36 22
36 45 0 41 -36 58 -64 29z"/>
<path d="M2146 3924 c-19 -18 -20 -28 -6 -55 19 -35 80 -18 80 22 0 21 -26 49
-45 49 -7 0 -21 -7 -29 -16z"/>
<path d="M2458 3919 c-21 -12 -24 -59 -6 -77 7 -7 21 -12 33 -12 43 0 61 53
29 84 -18 18 -32 20 -56 5z"/>
<path d="M2572 3910 c-44 -41 -16 -110 43 -110 58 0 86 69 45 110 -26 26 -60
25 -88 0z"/>
<path d="M1615 3895 c-14 -13 -25 -32 -25 -43 0 -28 37 -62 69 -62 56 0 82 69
41 110 -27 27 -56 25 -85 -5z"/>
<path d="M1914 3906 c-11 -28 1 -51 27 -54 29 -3 44 18 34 49 -8 23 -53 26
-61 5z"/>
<path d="M1762 3888 c-16 -16 -15 -33 4 -52 23 -24 56 -3 52 32 -3 30 -35 41
-56 20z"/>
<path d="M2082 3889 c2 -6 8 -10 13 -10 5 0 11 4 13 10 2 6 -4 11 -13 11 -9 0
-15 -5 -13 -11z"/>
<path d="M2250 3885 c0 -9 5 -15 11 -13 6 2 11 8 11 13 0 5 -5 11 -11 13 -6 2
-11 -4 -11 -13z"/>
<path d="M2350 3886 c-10 -13 -10 -19 0 -32 12 -14 15 -14 29 0 14 15 14 17 0
32 -14 14 -17 14 -29 0z"/>
<path d="M1844 3879 c-3 -6 0 -17 7 -25 18 -17 44 -2 36 20 -7 18 -33 21 -43
5z"/>
<path d="M2295 3880 c-3 -5 1 -10 9 -10 9 0 16 5 16 10 0 6 -4 10 -9 10 -6 0
-13 -4 -16 -10z"/>
<path d="M1508 3839 c-26 -15 -23 -65 3 -80 34 -18 69 3 69 40 0 42 -36 62
-72 40z"/>
<path d="M2704 3826 c-12 -31 0 -51 31 -51 24 0 31 5 33 24 6 36 -51 60 -64
27z"/>
<path d="M2791 3791 c-17 -11 -7 -41 13 -41 22 0 30 20 15 36 -9 8 -19 10 -28
5z"/>
<path d="M2851 3766 c-9 -11 -10 -20 -1 -35 21 -40 79 -15 65 29 -7 24 -46 27
-64 6z"/>
<path d="M1421 3751 c-19 -12 -6 -43 16 -39 10 2 18 12 18 22 0 22 -14 29 -34
17z"/>
<path d="M2934 3736 c-3 -8 -4 -25 -2 -38 2 -18 9 -23 33 -23 17 0 36 -4 43
-9 20 -12 30 4 10 18 -9 6 -18 23 -20 36 -2 19 -10 26 -31 28 -17 2 -29 -2
-33 -12z"/>
<path d="M1370 3710 c0 -5 5 -10 10 -10 6 0 10 5 10 10 0 6 -4 10 -10 10 -5 0
-10 -4 -10 -10z"/>
<path d="M1325 3701 c-7 -12 12 -24 25 -16 11 7 4 25 -10 25 -5 0 -11 -4 -15
-9z"/>
<path d="M1232 3688 c-19 -19 -14 -56 8 -68 38 -21 80 22 60 61 -12 21 -50 25
-68 7z"/>
<path d="M3050 3665 c-7 -8 -10 -25 -6 -39 11 -45 71 -45 82 0 8 30 -11 54
-41 54 -12 0 -28 -7 -35 -15z"/>
<path d="M1110 3616 c-6 -8 -10 -25 -8 -38 4 -30 46 -38 65 -12 17 23 16 29
-3 48 -19 20 -38 20 -54 2z"/>
<path d="M1186 3623 c-11 -11 -6 -23 9 -23 8 0 15 4 15 9 0 13 -16 22 -24 14z"/>
<path d="M3142 3589 c2 -6 8 -10 13 -10 5 0 11 4 13 10 2 6 -4 11 -13 11 -9 0
-15 -5 -13 -11z"/>
<path d="M1034 3556 c-11 -28 1 -51 28 -54 31 -4 48 29 28 53 -16 19 -49 19
-56 1z"/>
<path d="M3180 3560 c0 -5 5 -10 10 -10 6 0 10 5 10 10 0 6 -4 10 -10 10 -5 0
-10 -4 -10 -10z"/>
<path d="M3210 3530 c0 -5 5 -10 10 -10 6 0 10 5 10 10 0 6 -4 10 -10 10 -5 0
-10 -4 -10 -10z"/>
<path d="M3324 3507 c-2 -7 2 -30 11 -50 14 -33 18 -36 35 -27 27 14 27 66 1
80 -26 14 -41 13 -47 -3z"/>
<path d="M993 3503 c-17 -6 -16 -28 1 -42 21 -17 45 15 25 33 -8 8 -20 12 -26
9z"/>
<path d="M911 3456 c-9 -11 -10 -20 -1 -35 13 -26 46 -27 59 -3 20 38 -31 71
-58 38z"/>
<path d="M3424 3450 c-23 -9 -38 -36 -25 -44 5 -3 30 2 56 11 44 15 47 17 30
29 -21 16 -31 16 -61 4z"/>
<path d="M803 3419 c-26 -9 -43 -57 -32 -87 10 -26 53 -45 80 -37 37 12 54 79
28 111 -13 16 -51 22 -76 13z"/>
<path d="M3455 3351 c-37 -17 -38 -18 -17 -25 24 -8 72 15 72 34 0 13 -7 12
-55 -9z"/>
<path d="M3502 3308 c-30 -30 3 -77 40 -57 30 16 16 69 -17 69 -6 0 -16 -5
-23 -12z"/>
<path d="M722 3288 c-21 -21 -15 -68 11 -77 44 -17 86 39 57 75 -15 17 -52 18
-68 2z"/>
<path d="M3554 3225 c-7 -18 3 -35 21 -35 18 0 26 25 12 39 -15 15 -27 14 -33
-4z"/>
<path d="M3593 3174 c-9 -24 10 -49 38 -49 20 0 24 5 24 30 0 25 -4 30 -28 33
-18 2 -29 -2 -34 -14z"/>
<path d="M677 3157 c-3 -8 -2 -20 3 -27 11 -18 42 -4 38 17 -4 22 -34 29 -41
10z"/>
<path d="M3655 3114 c-8 -9 -15 -22 -15 -29 0 -15 27 -45 41 -45 5 0 9 -7 9
-15 0 -8 7 -15 15 -15 8 0 15 7 15 15 0 8 -5 15 -11 15 -8 0 -8 4 1 14 30 38
-21 94 -55 60z"/>
<path d="M650 3101 c0 -6 5 -13 10 -16 6 -3 10 1 10 9 0 9 -4 16 -10 16 -5 0
-10 -4 -10 -9z"/>
<path d="M620 3066 c0 -9 7 -16 16 -16 9 0 14 5 12 12 -6 18 -28 21 -28 4z"/>
<path d="M556 3024 c-30 -30 -13 -74 29 -74 42 0 59 44 29 74 -8 9 -22 16 -29
16 -7 0 -21 -7 -29 -16z"/>
<path d="M3722 2991 c-18 -11 -11 -61 11 -75 22 -14 51 3 55 33 6 40 -32 64
-66 42z"/>
<path d="M535 2930 c-7 -12 2 -30 16 -30 12 0 12 27 0 35 -5 3 -12 1 -16 -5z"/>
<path d="M1582 1968 l3 -963 103 -3 102 -3 0 746 c0 533 3 746 11 743 9 -3
376 -629 769 -1313 l97 -170 92 -3 91 -3 0 966 0 965 -105 0 -105 0 -2 -746
-3 -746 -431 743 -430 744 -97 3 -97 3 2 -963z"/>
<path d="M480 2896 c-6 -8 -10 -25 -8 -38 2 -18 10 -24 35 -26 28 -3 33 1 39
23 11 45 -37 75 -66 41z"/>
<path d="M3772 2878 c6 -18 28 -21 28 -4 0 9 -7 16 -16 16 -9 0 -14 -5 -12
-12z"/>
<path d="M3795 2840 c-3 -5 -1 -10 4 -10 6 0 11 5 11 10 0 6 -2 10 -4 10 -3 0
-8 -4 -11 -10z"/>
<path d="M444 2806 c-11 -28 1 -51 25 -51 32 0 49 28 32 49 -17 20 -50 21 -57
2z"/>
<path d="M3809 2794 c-9 -11 -9 -18 -1 -26 14 -14 42 -3 42 16 0 20 -27 27
-41 10z"/>
<path d="M424 2719 c-10 -17 23 -46 37 -32 7 7 9 19 6 27 -7 18 -33 21 -43 5z"/>
<path d="M3862 2718 c-19 -19 -15 -66 7 -78 11 -5 24 -10 30 -10 16 0 41 30
41 50 0 39 -52 64 -78 38z"/>
<path d="M384 2656 c-10 -26 1 -51 22 -54 27 -4 47 21 39 48 -7 24 -53 28 -61
6z"/>
<path d="M3913 2612 c-6 -4 -17 -20 -23 -36 -8 -23 -7 -34 4 -52 46 -69 138
-15 110 65 -7 20 -17 27 -44 29 -19 1 -40 -1 -47 -6z"/>
<path d="M307 2562 c-37 -41 -6 -112 48 -112 14 0 34 9 45 20 11 11 20 31 20
45 0 55 -77 87 -113 47z"/>
<path d="M3930 2445 c-18 -22 -1 -50 31 -50 20 0 24 5 24 30 0 23 -5 31 -21
33 -11 2 -27 -4 -34 -13z"/>
<path d="M302 2418 c-33 -33 7 -95 51 -79 47 18 38 91 -11 91 -15 0 -33 -5
-40 -12z"/>
<path d="M3944 2355 c-4 -9 -2 -21 4 -27 15 -15 44 -1 40 19 -4 23 -36 29 -44
8z"/>
<path d="M3957 2294 c-15 -15 -7 -53 13 -59 27 -8 52 12 48 39 -3 21 -46 35
-61 20z"/>
<path d="M331 2281 c-17 -11 -7 -41 13 -41 22 0 30 20 15 36 -9 8 -19 10 -28
5z"/>
<path d="M326 2211 c-4 -5 -2 -12 3 -15 5 -4 12 -2 15 3 4 5 2 12 -3 15 -5 4
-12 2 -15 -3z"/>
<path d="M3972 2208 c-15 -15 -16 -54 -2 -63 6 -4 9 -14 8 -23 -2 -10 4 -17
12 -17 8 0 14 5 13 11 -1 7 7 20 17 29 25 22 25 37 2 58 -22 20 -34 21 -50 5z"/>
<path d="M315 2170 c-4 -6 -3 -16 3 -22 6 -6 12 -6 17 2 4 6 3 16 -3 22 -6 6
-12 6 -17 -2z"/>
<path d="M296 2107 c-12 -9 -17 -23 -14 -42 3 -27 7 -30 38 -30 31 0 35 3 38
30 3 26 -17 55 -38 55 -3 0 -14 -6 -24 -13z"/>
<path d="M3966 2064 c-30 -30 -13 -74 29 -74 42 0 59 44 29 74 -8 9 -22 16
-29 16 -7 0 -21 -7 -29 -16z"/>
<path d="M316 2003 c-11 -11 -6 -23 9 -23 8 0 15 4 15 9 0 13 -16 22 -24 14z"/>
<path d="M287 1949 c-18 -24 -13 -45 14 -60 14 -7 23 -5 40 12 18 18 19 23 6
42 -20 30 -42 32 -60 6z"/>
<path d="M3977 1954 c-8 -8 1 -24 14 -24 5 0 9 7 9 15 0 15 -12 20 -23 9z"/>
<path d="M3970 1900 c0 -5 5 -10 10 -10 6 0 10 5 10 10 0 6 -4 10 -10 10 -5 0
-10 -4 -10 -10z"/>
<path d="M294 1856 c-11 -28 1 -51 27 -54 29 -3 44 18 34 49 -8 23 -53 26 -61
5z"/>
<path d="M3955 1851 c-9 -16 3 -31 26 -31 14 0 19 6 17 17 -4 20 -33 29 -43
14z"/>
<path d="M322 1758 c2 -13 10 -23 18 -23 8 0 16 10 18 23 3 17 -2 22 -18 22
-16 0 -21 -5 -18 -22z"/>
<path d="M314 1696 c-11 -28 1 -51 25 -51 28 0 47 25 38 49 -8 20 -56 21 -63
2z"/>
<path d="M3938 1659 c-26 -15 -23 -65 3 -80 46 -24 92 28 62 70 -15 23 -38 26
-65 10z"/>
<path d="M310 1590 c-41 -41 -14 -110 41 -110 41 0 63 23 63 65 0 61 -61 88
-104 45z"/>
<path d="M3906 1539 c-33 -26 -34 -62 -1 -94 29 -30 45 -31 79 -4 32 25 35 70
6 99 -26 26 -51 25 -84 -1z"/>
<path d="M371 1451 c-38 -38 6 -95 55 -72 44 20 25 91 -25 91 -6 0 -20 -9 -30
-19z"/>
<path d="M3862 1398 c-30 -30 3 -77 40 -57 30 16 16 69 -17 69 -6 0 -16 -5
-23 -12z"/>
<path d="M447 1326 c-7 -18 11 -36 29 -29 21 8 17 43 -5 43 -10 0 -21 -6 -24
-14z"/>
<path d="M3831 1316 c-16 -19 -6 -36 20 -36 15 0 20 6 17 22 -4 27 -21 33 -37
14z"/>
<path d="M480 1260 c0 -5 5 -10 10 -10 6 0 10 5 10 10 0 6 -4 10 -10 10 -5 0
-10 -4 -10 -10z"/>
<path d="M3794 1246 c-11 -28 1 -51 28 -54 31 -4 48 29 28 53 -16 19 -49 19
-56 1z"/>
<path d="M495 1230 c-4 -6 -3 -16 3 -22 6 -6 12 -6 17 2 4 6 3 16 -3 22 -6 6
-12 6 -17 -2z"/>
<path d="M516 1174 c-38 -37 -7 -97 39 -76 32 15 35 66 6 82 -25 13 -27 13
-45 -6z"/>
<path d="M3768 1183 c-19 -5 -34 -45 -23 -62 3 -6 1 -11 -4 -11 -6 0 -11 -7
-11 -15 0 -8 7 -15 15 -15 8 0 15 7 15 15 0 9 6 12 15 9 21 -9 45 14 45 42 0
25 -25 43 -52 37z"/>
<path d="M570 1070 c0 -5 7 -10 15 -10 8 0 15 5 15 10 0 6 -7 10 -15 10 -8 0
-15 -4 -15 -10z"/>
<path d="M3676 1054 c-9 -8 -16 -22 -16 -29 0 -19 28 -45 49 -45 40 0 54 45
23 73 -23 21 -36 21 -56 1z"/>
<path d="M571 1032 c-13 -24 12 -62 40 -62 27 0 47 44 29 65 -17 21 -57 19
-69 -3z"/>
<path d="M626 952 c-11 -32 4 -53 33 -50 22 2 26 8 26 33 0 25 -4 31 -27 33
-19 2 -28 -2 -32 -16z"/>
<path d="M3620 909 c0 -5 5 -7 10 -4 6 3 10 8 10 11 0 2 -4 4 -10 4 -5 0 -10
-5 -10 -11z"/>
<path d="M693 884 c-3 -8 -1 -20 6 -27 14 -14 47 15 37 32 -10 16 -36 13 -43
-5z"/>
<path d="M3564 879 c-9 -15 12 -33 30 -26 9 4 16 13 16 22 0 17 -35 21 -46 4z"/>
<path d="M730 835 c-26 -31 13 -82 44 -56 19 16 21 42 4 59 -16 16 -33 15 -48
-3z"/>
<path d="M3485 778 c-14 -36 34 -78 66 -57 11 7 9 10 -9 15 -12 4 -29 18 -37
33 -11 22 -15 23 -20 9z"/>
<path d="M780 740 c-11 -11 -20 -29 -20 -40 0 -24 42 -70 63 -70 24 0 67 40
67 64 0 59 -68 88 -110 46z"/>
<path d="M3410 712 c-51 -41 -12 -132 49 -117 39 10 51 24 51 61 0 30 -21 64
-40 64 -5 0 -15 2 -23 5 -7 3 -24 -3 -37 -13z"/>
<path d="M900 650 c-24 -24 -25 -43 -4 -64 30 -31 84 -9 84 34 0 17 -34 50
-52 50 -5 0 -17 -9 -28 -20z"/>
<path d="M3331 601 c-30 -8 -37 -24 -17 -40 23 -19 56 -4 56 25 0 25 -1 26
-39 15z"/>
<path d="M1015 570 c-9 -15 4 -30 26 -30 12 0 19 7 19 20 0 21 -33 29 -45 10z"/>
<path d="M3253 554 c-7 -18 11 -39 26 -30 17 11 13 46 -4 46 -9 0 -18 -7 -22
-16z"/>
<path d="M1076 531 c-4 -7 -5 -15 -2 -18 9 -9 19 4 14 18 -4 11 -6 11 -12 0z"/>
<path d="M3176 505 c-7 -20 2 -42 20 -49 15 -6 17 6 8 42 -7 25 -19 29 -28 7z"/>
<path d="M1107 503 c-12 -11 -8 -23 8 -23 8 0 15 7 15 15 0 16 -12 20 -23 8z"/>
<path d="M1155 466 c-13 -19 -14 -29 -5 -45 20 -39 80 -21 80 24 0 47 -49 60
-75 21z"/>
<path d="M3112 471 c-8 -5 -12 -21 -10 -37 2 -23 9 -30 30 -32 19 -2 30 3 38
17 21 40 -20 77 -58 52z"/>
<path d="M1247 414 c-8 -8 1 -24 14 -24 5 0 9 7 9 15 0 15 -12 20 -23 9z"/>
<path d="M2982 408 c-17 -17 -15 -65 3 -71 18 -7 59 48 51 68 -7 18 -37 20
-54 3z"/>
<path d="M1287 399 c-38 -22 -9 -87 32 -74 21 6 36 38 26 55 -12 19 -40 29
-58 19z"/>
<path d="M1355 340 c-8 -27 12 -52 39 -48 16 2 21 10 21 33 0 25 -4 31 -27 33
-19 2 -28 -2 -33 -18z"/>
<path d="M2917 346 c-7 -19 11 -32 24 -19 6 6 5 14 -4 22 -12 9 -16 8 -20 -3z"/>
<path d="M1451 321 c-17 -11 -7 -41 13 -41 22 0 30 20 15 36 -9 8 -19 10 -28
5z"/>
<path d="M2880 320 c0 -5 5 -10 10 -10 6 0 10 5 10 10 0 6 -4 10 -10 10 -5 0
-10 -4 -10 -10z"/>
<path d="M1504 286 c-10 -27 1 -51 25 -54 31 -5 45 11 37 42 -5 19 -13 26 -32
26 -13 0 -27 -6 -30 -14z"/>
<path d="M2702 274 c-27 -19 -28 -45 -2 -69 45 -40 105 20 65 65 -22 24 -34
25 -63 4z"/>
<path d="M1600 243 c-36 -46 -8 -103 50 -103 56 0 83 83 38 114 -33 23 -64 19
-88 -11z"/>
<path d="M2583 248 c-30 -15 -48 -60 -34 -87 23 -43 70 -52 101 -21 52 52 -2
139 -67 108z"/>
<path d="M1740 210 c-23 -42 14 -86 58 -69 29 11 37 34 24 65 -15 31 -66 34
-82 4z"/>
<path d="M2451 206 c-21 -25 -4 -58 27 -54 23 2 27 8 27 33 0 23 -5 31 -21 33
-11 2 -26 -4 -33 -12z"/>
<path d="M1880 190 c0 -13 7 -20 20 -20 13 0 20 7 20 20 0 13 -7 20 -20 20
-13 0 -20 -7 -20 -20z"/>
<path d="M2066 197 c-38 -27 2 -95 42 -71 21 14 28 50 12 70 -15 17 -31 18
-54 1z"/>
<path d="M2206 184 c-31 -30 -8 -69 36 -62 30 4 38 46 12 65 -23 17 -29 16
-48 -3z"/>
<path d="M2290 179 c-9 -15 -8 -24 1 -35 28 -33 80 -3 59 35 -14 27 -46 27
-60 0z"/>
<path d="M2380 180 c0 -13 7 -20 20 -20 13 0 20 7 20 20 0 13 -7 20 -20 20
-13 0 -20 -7 -20 -20z"/>
<path d="M1950 180 c0 -5 5 -10 10 -10 6 0 10 5 10 10 0 6 -4 10 -10 10 -5 0
-10 -4 -10 -10z"/>
<path d="M1990 176 c0 -9 7 -16 16 -16 9 0 14 5 12 12 -6 18 -28 21 -28 4z"/>
<path d="M2157 173 c-12 -11 -8 -23 8 -23 8 0 15 7 15 15 0 16 -12 20 -23 8z"/>
</g>
</svg>
